<svg width="16" height="16" viewBox="0 0 16 16" fill="none" xmlns="http://www.w3.org/2000/svg">
<path d="M7.46885 8.00937L3.21885 3.75938C2.9251 3.46563 2.9251 2.99063 3.21885 2.7L3.9251 1.99375C4.21885 1.7 4.69385 1.7 4.98447 1.99375L7.99697 5.00625L11.0095 1.99375C11.3032 1.7 11.7782 1.7 12.0688 1.99375L12.7813 2.69688C13.0751 2.99063 13.0751 3.46562 12.7813 3.75625L8.53135 8.00625C8.2376 8.30313 7.7626 8.30312 7.46885 8.00937ZM8.53135 14.0094L12.7813 9.75937C13.0751 9.46562 13.0751 8.99062 12.7813 8.7L12.0751 7.99375C11.7813 7.7 11.3063 7.7 11.0157 7.99375L8.0001 11.0031L4.9876 7.99062C4.69385 7.69687 4.21885 7.69687 3.92822 7.99062L3.21885 8.69687C2.9251 8.99062 2.9251 9.46563 3.21885 9.75625L7.46885 14.0063C7.7626 14.3031 8.2376 14.3031 8.53135 14.0094Z" fill="#BEC8CD"/>
</svg>
