<svg width="32" height="32" viewBox="0 0 32 32" fill="none" xmlns="http://www.w3.org/2000/svg">
<path d="M30.4625 19.7312L27.8 18.1937C28.0688 16.7437 28.0688 15.2562 27.8 13.8062L30.4625 12.2687C30.7688 12.0937 30.9063 11.7312 30.8063 11.3937C30.1125 9.16872 28.9313 7.15622 27.3875 5.48122C27.15 5.22497 26.7625 5.16247 26.4625 5.33747L23.8 6.87497C22.6813 5.91247 21.3938 5.16872 20 4.68122V1.61247C20 1.26247 19.7563 0.956223 19.4125 0.881223C17.1188 0.368723 14.7688 0.393723 12.5875 0.881223C12.2438 0.956223 12 1.26247 12 1.61247V4.68747C10.6125 5.18122 9.32504 5.92497 8.20004 6.88122L5.54379 5.34372C5.23754 5.16872 4.85629 5.22497 4.61879 5.48747C3.07504 7.15622 1.89379 9.16872 1.20004 11.4C1.09379 11.7375 1.23754 12.1 1.54379 12.275L4.20629 13.8125C3.93754 15.2625 3.93754 16.75 4.20629 18.2L1.54379 19.7375C1.23754 19.9125 1.10004 20.275 1.20004 20.6125C1.89379 22.8375 3.07504 24.85 4.61879 26.525C4.85629 26.7812 5.24379 26.8437 5.54379 26.6687L8.20629 25.1312C9.32504 26.0937 10.6125 26.8375 12.0063 27.325V30.4C12.0063 30.75 12.25 31.0562 12.5938 31.1312C14.8875 31.6437 17.2375 31.6187 19.4188 31.1312C19.7625 31.0562 20.0063 30.75 20.0063 30.4V27.325C21.3938 26.8312 22.6813 26.0875 23.8063 25.1312L26.4688 26.6687C26.775 26.8437 27.1563 26.7875 27.3938 26.525C28.9375 24.8562 30.1188 22.8437 30.8125 20.6125C30.9063 20.2687 30.7688 19.9062 30.4625 19.7312V19.7312ZM16 21C13.2438 21 11 18.7562 11 16C11 13.2437 13.2438 11 16 11C18.7563 11 21 13.2437 21 16C21 18.7562 18.7563 21 16 21Z" fill="#BEC8CD"/>
</svg>
